<?xml version="1.0" encoding="UTF-8" standalone="no"?>
<svg
   xmlns:dc="http://purl.org/dc/elements/1.1/"
   xmlns:cc="http://creativecommons.org/ns#"
   xmlns:rdf="http://www.w3.org/1999/02/22-rdf-syntax-ns#"
   xmlns:svg="http://www.w3.org/2000/svg"
   xmlns="http://www.w3.org/2000/svg"
   xmlns:sodipodi="http://sodipodi.sourceforge.net/DTD/sodipodi-0.dtd"
   xmlns:inkscape="http://www.inkscape.org/namespaces/inkscape"
   sodipodi:docname="picture_talk.svg"
   inkscape:version="1.0 (4035a4fb49, 2020-05-01)"
   id="svg8"
   version="1.1"
   viewBox="0 0 38.893749 38.893751"
   height="147"
   width="147">
  <defs
     id="defs2">
    <style
       id="style833">.a{fill:#fff;}.b,.m{fill:#005ab2;}.c{clip-path:url(#c);}.d{fill:#9fa85d;}.e{fill:#6e772d;}.f{fill:#fcbb3b;}.g{fill:#f9cc3d;}.h{fill:#b2bf6d;}.i{fill:#deea8b;}.j{fill:#f4edd7;}.k{fill:#818945;}.l{fill:#f9e9cd;}.m{font-size:26px;font-family:Nunito-Bold, Nunito;font-weight:700;letter-spacing:0.05em;}.n{filter:url(#a);}</style>
    <filter
       id="a"
       x="36"
       y="0"
       width="146"
       height="146"
       filterUnits="userSpaceOnUse">
      <feOffset
         dx="5"
         dy="5"
         input="SourceAlpha"
         id="feOffset835" />
      <feGaussianBlur
         stdDeviation="5"
         result="b"
         id="feGaussianBlur837" />
      <feFlood
         flood-opacity="0.2"
         id="feFlood839" />
      <feComposite
         operator="in"
         in2="b"
         id="feComposite841"
         result="result1" />
      <feComposite
         in="SourceGraphic"
         in2="result1"
         id="feComposite843" />
    </filter>
    <clipPath
       id="c">
      <path
         class="a"
         d="M 58.52,0 A 58.52,58.52 0 1 1 0,58.52 58.52,58.52 0 0 1 58.52,0 Z"
         id="path846" />
    </clipPath>
  </defs>
  <sodipodi:namedview
     inkscape:window-maximized="0"
     inkscape:window-y="0"
     inkscape:window-x="0"
     inkscape:window-height="461"
     inkscape:window-width="1343"
     units="px"
     showgrid="false"
     inkscape:document-rotation="0"
     inkscape:current-layer="layer1"
     inkscape:document-units="mm"
     inkscape:cy="237.64782"
     inkscape:cx="400"
     inkscape:zoom="0.35"
     inkscape:pageshadow="2"
     inkscape:pageopacity="0.0"
     borderopacity="1.0"
     bordercolor="#666666"
     pagecolor="#ffffff"
     id="base" />
  <metadata
     id="metadata5">
    <rdf:RDF>
      <cc:Work
         rdf:about="">
        <dc:format>image/svg+xml</dc:format>
        <dc:type
           rdf:resource="http://purl.org/dc/dcmitype/StillImage" />
        <dc:title></dc:title>
      </cc:Work>
    </rdf:RDF>
  </metadata>
  <g
     id="layer1"
     inkscape:groupmode="layer"
     inkscape:label="Layer 1">
    <g
       id="g967"
       transform="matrix(0.26458333,0,0,0.26458333,3.986289,0.95121616)">
      <g
         id="g853"
         transform="translate(-45.57,-2.13)"
         class="n">
        <circle
           id="circle851"
           transform="translate(46,10)"
           r="58"
           cy="58"
           cx="58"
           class="b" />
      </g>
      <path
         id="path855"
         d="M 58.52,0 A 58.52,58.52 0 1 1 0,58.52 58.52,58.52 0 0 1 58.52,0 Z"
         class="a" />
      <g
         id="g965"
         clip-path="url(#c)"
         class="c">
        <g
           id="g963"
           transform="translate(4.849,19.067)">
          <path
             id="path857"
             transform="translate(-25.155,-289.728)"
             d="m 52.167,368.723 c 3.013,-0.217 5.413,-2.568 7.227,-4.983 4.2,-5.594 6.833,-12.274 11.3,-17.661 1.243,-1.5 2.767,-2.967 4.7,-3.249 a 9.125,9.125 0 0 1 3.376,0.36 c 2.118,0.5 4.474,1.171 5.539,3.069 a 7.533,7.533 0 0 1 0.538,4.372 c -0.576,6.51 -2.148,13.072 -5.709,18.553 -3.561,5.481 -9.338,9.766 -15.838,10.442"
             class="d" />
          <path
             id="path859"
             transform="translate(-18.625,-291.181)"
             d="m 114.53,329.006 a 28.188,28.188 0 0 1 7.392,0.341 4.561,4.561 0 0 1 3.073,1.517 c 0.88,1.259 0.4,3.006 -0.324,4.359 a 14.445,14.445 0 0 1 -3.05,3.89 25.3,25.3 0 0 0 -3.852,3.528"
             class="e" />
          <path
             id="path861"
             transform="translate(-18.33,-289.512)"
             d="m 117.341,344.877 a 22.535,22.535 0 0 1 9.166,1.392 5.032,5.032 0 0 1 1.678,0.919 3.878,3.878 0 0 1 0.864,3.8 c -0.555,2.141 -2.257,3.764 -3.883,5.263 l -4.243,3.911"
             class="e" />
          <path
             id="path863"
             transform="translate(-18.187,-287.429)"
             d="m 118.7,365.061 a 19.48,19.48 0 0 1 8.182,0.244 5.381,5.381 0 0 1 2.037,0.863 4.1,4.1 0 0 1 1.225,4.1 9.689,9.689 0 0 1 -2.176,3.913 32.773,32.773 0 0 1 -6.139,5.78"
             class="e" />
          <path
             id="path865"
             transform="translate(-17.836,-285.585)"
             d="m 122.057,385.269 a 33.4,33.4 0 0 1 9.179,-2.806 c 1.562,-0.24 3.479,-0.213 4.324,1.121 a 4.2,4.2 0 0 1 0.093,3.306 39.789,39.789 0 0 1 -3.138,8.11"
             class="e" />
          <path
             id="path867"
             transform="translate(-18.524,-291.745)"
             d="m 115.485,326.5 c 4.365,-3.545 10.835,-3.791 15.947,-1.445 5.112,2.346 8.939,6.931 11.364,12 a 67.039,67.039 0 0 1 6.265,21.167 c 1.125,9.751 1.887,20.674 -4.155,29.1 -2.609,3.641 -6.846,5.851 -11.2,6.889 -4.354,1.038 -8.887,1.022 -13.367,1"
             class="f" />
          <path
             id="path869"
             transform="translate(-19.353,-292.984)"
             d="m 107.576,313.021 a 25.747,25.747 0 0 1 8.109,-1.336 3.109,3.109 0 0 1 3.586,4.287 28.838,28.838 0 0 1 -4.562,11.492"
             class="e" />
          <path
             id="path871"
             transform="translate(-15.913,-285.197)"
             d="m 140.42,397.075 a 20.272,20.272 0 0 1 3.661,-8.791 4.672,4.672 0 0 1 3.118,-2.224 c 1.381,-0.106 2.589,0.876 3.557,1.866 a 29.035,29.035 0 0 1 4.676,6.294"
             class="e" />
          <path
             id="path873"
             transform="translate(-18.42,-290.702)"
             d="m 116.522,341.648 a 181.907,181.907 0 0 0 25.073,-7.711 c -0.087,-0.154 -0.184,-0.3 -0.275,-0.452 a 181.174,181.174 0 0 1 -24.834,7.64 z"
             class="g" />
          <path
             id="path875"
             transform="translate(-18.17,-287.105)"
             d="M 118.907,375.358 A 127.656,127.656 0 0 0 149.33,368.4 c 0.015,-0.188 0.023,-0.377 0.036,-0.566 a 127.072,127.072 0 0 1 -30.5,7 z"
             class="g" />
          <g
             id="g879"
             transform="translate(34.611,10.388)">
            <path
               id="path877"
               transform="translate(-59.045,-304.16)"
               d="m 72.44,309.92 a 0.543,0.543 0 0 1 -0.18,-0.031 l -12.87,-4.714 a 0.524,0.524 0 1 1 0.36,-0.984 l 12.87,4.709 a 0.524,0.524 0 0 1 -0.18,1.015 z"
               class="f" />
          </g>
          <path
             id="path881"
             transform="translate(-27.715,-294.362)"
             d="m 126.164,329.478 a 70.311,70.311 0 0 0 -4.6,-12.642 18.677,18.677 0 0 0 -3.077,-4.792 c -0.612,-0.63 -4.047,-2.726 -4.087,-3.4 a 16.016,16.016 0 0 0 -1.083,-5.833 c -1.722,-3.723 -6.592,-5.231 -10.244,-3.682 -3.322,1.384 -5,4.629 -5.268,8.048 -3.218,0.065 -6.316,0.895 -9.617,0.977 a 12.69,12.69 0 0 0 -2.362,-5.05 5.948,5.948 0 0 0 -4.914,-2.255 7.762,7.762 0 0 0 -3.773,1.725 c -1.8,1.336 -2.471,3.06 -3.029,5.168 a 17.22,17.22 0 0 0 -0.458,6.365 c -4.8,1.386 -9.918,2.056 -14.835,3.087 -1.243,0.261 -16.222,3.584 -16.179,3.735 a 11.258,11.258 0 0 0 -1.022,-2.68 3.758,3.758 0 0 0 -4.271,-1.814 c -1.8,0.487 -3.3,3.12 -2.428,4.91 -1.048,-2.152 -3.977,-5.729 -6.163,-2.571 -1.252,1.81 -1.066,4.607 -0.958,6.692 a 47.141,47.141 0 0 0 1.231,9.17 c 1.044,4.105 2.026,6.086 6.575,6.728 14.153,2 28.219,1.579 42.354,-0.259 -2.45,14.028 -4.747,28.376 -4.893,42.569 a 3.05,3.05 0 0 0 0.179,1.308 3,3 0 0 0 2.078,1.332 c 9.227,2.61 18.915,2.719 28.42,2.155 a 62.264,62.264 0 0 0 13.025,-1.732 c 4.106,-1.132 6.992,1.437 10.562,3.577 3.082,1.848 6.783,3.377 10.2,2.256 -3.76,-5.323 -5.086,-11.892 -5.147,-18.311 -0.028,-3.038 0.677,-6.178 0.35,-9.179 -0.3,-2.752 -0.989,-5.556 -1.3,-8.35 a 171.12,171.12 0 0 0 -5.266,-27.252 z"
             class="h" />
          <path
             id="path883"
             transform="translate(-27.109,-287.767)"
             d="m 183.064,361.966 c 6.232,-3.817 7.722,17.586 7.856,20.632 1.023,23.506 -7.995,49.561 -31.428,58.792 a 81.4,81.4 0 0 1 -23.876,5 q -4.754,0.35 -9.527,0.3 c -7.718,-0.069 -15.462,-0.953 -23.1,-1.355 -9.061,-0.477 -18.076,-1.584 -27.125,-2.223 -12.962,-0.915 -25.882,1.325 -38.679,-0.569 -0.959,-0.141 -2.5,-7.177 -2.723,-8.177 a 46.732,46.732 0 0 1 -0.931,-11.461 80.421,80.421 0 0 1 3.737,-21.949 c 7.013,-0.657 13.7,8.265 15.9,14.126 0.177,0.472 44.669,-14.336 48.531,-15.645 0.335,-0.114 0.4,-11.806 0.42,-12.973 0.072,-3.7 1.349,-6.539 2,-10.177 a 188.473,188.473 0 0 0 28.263,-5.976 c -2.412,0.708 5.785,19.857 7.458,21.309 8.275,7.184 18.771,6.716 27.807,1.412 8.833,-5.184 13.655,-17.1 14,-27.064 0.053,-1.479 0.153,-3.23 1.417,-4.002 z"
             class="h" />
          <path
             id="path885"
             transform="translate(-23.417,-290.193)"
             d="m 110.6,383.414 c 1.412,-0.127 2.834,-0.332 4.253,-0.59 a 142.334,142.334 0 0 0 -2.261,-22.7 c -0.853,-4.687 -2,-9.472 -4.791,-13.336 -4.281,-5.936 -11.992,-8.786 -19.3,-8.408 a 35.7,35.7 0 0 0 -15.971,5.15 c -1.985,11.912 -3.644,24 -3.768,35.975 a 3.05,3.05 0 0 0 0.179,1.308 3,3 0 0 0 2.078,1.332 c 12.781,3.614 26.353,2.455 39.581,1.269 z"
             class="i" />
          <g
             id="g889"
             transform="translate(34.203)">
            <path
               id="path887"
               transform="translate(-58.676,-294.757)"
               d="m 72.778,322.959 a 14.1,14.1 0 1 1 14.1,-14.1 14.117,14.117 0 0 1 -14.1,14.1 z m 0,-27.155 A 13.054,13.054 0 1 0 85.831,308.858 13.069,13.069 0 0 0 72.778,295.8 Z"
               class="f" />
          </g>
          <g
             id="g893"
             transform="translate(64.274)">
            <path
               id="path891"
               transform="translate(-85.897,-294.757)"
               d="m 100,322.959 a 14.1,14.1 0 1 1 14.1,-14.1 14.117,14.117 0 0 1 -14.1,14.1 z m 0,-27.155 A 13.054,13.054 0 1 0 113.053,308.858 13.069,13.069 0 0 0 100,295.8 Z"
               class="f" />
          </g>
          <g
             id="g897"
             transform="translate(91.428,11.989)">
            <path
               id="path895"
               transform="translate(-110.477,-305.61)"
               d="m 122.05,312.076 -0.519,-0.065 a 2.93,2.93 0 0 0 -2.187,-3.2 l -8.473,-2.173 a 0.524,0.524 0 0 1 0.26,-1.015 l 8.469,2.177 a 3.965,3.965 0 0 1 2.975,4.265 z"
               class="f" />
          </g>
          <g
             id="g901"
             transform="translate(61.17,10.543)">
            <path
               id="path899"
               transform="translate(-83.087,-304.3)"
               d="m 83.611,306.137 a 0.523,0.523 0 0 1 -0.407,-0.853 2.87,2.87 0 0 1 1.848,-0.977 2.963,2.963 0 0 1 2.208,0.861 0.52439513,0.52439513 0 1 1 -0.7,0.781 1.934,1.934 0 0 0 -1.428,-0.6 1.808,1.808 0 0 0 -1.118,0.591 0.523,0.523 0 0 1 -0.403,0.197 z"
               class="f" />
          </g>
          <path
             id="path903"
             transform="translate(-26.479,-291.206)"
             d="m 39.524,328.989 a 14.065,14.065 0 0 0 0.76,2.069 2.5,2.5 0 0 0 1.516,1.57 1.792,1.792 0 0 0 1.554,-0.521 4.632,4.632 0 0 0 0.928,-1.418 c 0.315,-0.658 0.593,-1.333 0.85,-2.016 q -2.798,0.227 -5.608,0.316 z"
             class="j" />
          <path
             id="path905"
             transform="translate(-25.687,-291.274)"
             d="m 47.088,328.49 a 6.743,6.743 0 0 0 1,2.216 c 0.344,0.489 0.925,0.978 1.477,0.749 a 1.413,1.413 0 0 0 0.6,-0.614 14.213,14.213 0 0 0 1.329,-2.825 q -2.204,0.258 -4.406,0.474 z"
             class="j" />
          <path
             id="path907"
             transform="translate(-25.016,-291.334)"
             d="m 53.489,327.778 a 5.333,5.333 0 0 0 0.911,2.362 c 0.271,0.384 0.727,0.769 1.161,0.588 a 1.108,1.108 0 0 0 0.47,-0.483 11.112,11.112 0 0 0 1.233,-2.8 c -1.264,0.111 -2.532,0.208 -3.775,0.333 z"
             class="j" />
          <path
             id="path909"
             transform="translate(-24.467,-291.404)"
             d="m 58.733,327.328 a 5.3,5.3 0 0 0 0.858,2.1 c 0.27,0.384 0.727,0.769 1.161,0.588 a 1.108,1.108 0 0 0 0.469,-0.483 11.168,11.168 0 0 0 1.223,-2.755 c -1.217,0.245 -2.458,0.422 -3.711,0.55 z"
             class="j" />
          <path
             id="path911"
             transform="translate(-27.559,-292.319)"
             d="m 31.776,320.388 c 1.571,-2.852 -3.242,-3.25 -2.487,-0.412 a 1.453,1.453 0 0 0 1.818,1.073 1.492,1.492 0 0 0 0.669,-0.661 z"
             class="k" />
          <path
             id="path913"
             transform="translate(-26.841,-292.449)"
             d="m 38.631,319.152 c 1.571,-2.851 -3.242,-3.25 -2.487,-0.411 a 1.453,1.453 0 0 0 1.818,1.072 1.482,1.482 0 0 0 0.669,-0.661 z"
             class="k" />
          <path
             id="path915"
             transform="translate(-19.645,-291.123)"
             d="m 128.712,387.724 c -8.007,-1.134 -14.18,-7.2 -16.792,-15.013 -4.434,-13.259 1.151,-25.539 9.325,-35.8 -0.542,-2.493 -1.179,-4.97 -1.853,-7.447 a 48.267,48.267 0 0 0 -12.924,21.318 43.667,43.667 0 0 0 1.9,29.394 c 1.982,4.457 4.889,8.677 9.07,11.193 a 17.252,17.252 0 0 0 14.459,1.363 16.183,16.183 0 0 1 -3.185,-5.008 z"
             class="f" />
          <path
             id="path917"
             transform="translate(-17.6,-289.625)"
             d="m 139.381,344.59 c -4.921,0.906 -9.778,2 -14.661,2.941 -1.279,3.914 0.8,11.856 1.6,14.793 0.8,2.937 2.083,6.005 4.711,7.536 3.5,2.039 8.278,0.421 10.815,-2.739 2.537,-3.16 3.249,-7.417 3.267,-11.47 a 55.651,55.651 0 0 0 -1.082,-11.886 c -1.547,0.269 -3.099,0.54 -4.65,0.825 z"
             class="g" />
          <path
             id="path919"
             transform="translate(-26.834,-284.031)"
             d="m 36.224,402.9 a 19.422,19.422 0 0 0 3.167,-2.975 3.657,3.657 0 0 0 0.809,-1.325 2.057,2.057 0 0 0 0.009,-1.023 8.505,8.505 0 0 0 -3.211,-0.358 c -0.309,0.937 -0.6,1.895 -0.867,2.865 z"
             class="e" />
          <path
             id="path921"
             transform="translate(-26.82,-283.511)"
             d="m 39.841,410.056 q 1.288,-1.218 2.577,-2.434 a 7.414,7.414 0 0 0 1.608,-1.908 2.508,2.508 0 0 0 0.051,-2.4 c -0.588,-0.966 -1.888,-1.183 -3.019,-1.161 a 13.743,13.743 0 0 0 -4.79,0.964 z"
             class="e" />
          <g
             id="g929"
             transform="translate(45.53,57.213)">
            <path
               id="path923"
               transform="translate(-68.66,-346.547)"
               d="m 96.753,347.98 c 3.839,-0.167 7.669,-0.487 11.485,-0.938 -0.1,-0.167 -0.214,-0.33 -0.323,-0.495 q -5.076,0.578 -10.178,0.861 a 163.788,163.788 0 0 1 -26.148,-0.72 c -0.027,0.171 -0.055,0.34 -0.082,0.51 a 170,170 0 0 0 25.246,0.782 z"
               class="h" />
            <path
               id="path925"
               transform="translate(-68.828,-345.367)"
               d="m 96.921,359.8 c 5.218,-0.227 10.419,-0.733 15.588,-1.477 -0.015,-0.081 -0.024,-0.162 -0.04,-0.243 -0.016,-0.081 -0.034,-0.176 -0.05,-0.263 q -7.223,1.016 -14.514,1.411 a 164.637,164.637 0 0 1 -27.548,-0.864 c -0.129,-0.014 -0.261,-0.032 -0.39,-0.048 -0.02,0.168 -0.042,0.335 -0.062,0.5 a 170.017,170.017 0 0 0 27.016,0.984 z"
               class="h" />
            <path
               id="path927"
               transform="translate(-68.93,-344.159)"
               d="m 70.459,370.158 c -0.5,-0.056 -1,-0.122 -1.5,-0.181 -0.009,0.169 -0.02,0.338 -0.028,0.507 a 170.024,170.024 0 0 0 28.093,1.11 158.48,158.48 0 0 0 17.268,-1.722 c -0.015,-0.173 -0.025,-0.347 -0.041,-0.519 q -8.075,1.225 -16.243,1.669 a 164.631,164.631 0 0 1 -27.549,-0.864 z"
               class="h" />
          </g>
          <g
             id="g947"
             transform="translate(0.836,9.085)">
            <g
               id="g939"
               transform="translate(48.782)">
              <g
                 id="g933"
                 transform="translate(0,2.771)">
                <path
                   id="path931"
                   transform="translate(-72.63,-305.489)"
                   d="m 78.7,305.489 c -0.133,-0.005 -0.245,0.735 -0.558,1.871 a 11.5,11.5 0 0 1 -0.682,1.909 c -0.32,0.65 -0.859,1.267 -1.523,1.2 a 2.754,2.754 0 0 1 -1.741,-1.236 5.685,5.685 0 0 1 -0.88,-1.759 c -0.33,-1.1 -0.261,-1.852 -0.4,-1.868 -0.1,-0.026 -0.419,0.735 -0.222,2.012 a 5.362,5.362 0 0 0 0.82,2.095 3.364,3.364 0 0 0 2.365,1.661 2.048,2.048 0 0 0 1.553,-0.582 3.558,3.558 0 0 0 0.789,-1.17 8.618,8.618 0 0 0 0.553,-2.136 c 0.163,-1.229 0.046,-1.994 -0.074,-1.997 z"
                   class="e" />
              </g>
              <g
                 id="g937"
                 transform="translate(25.694)">
                <path
                   id="path935"
                   transform="translate(-95.889,-302.981)"
                   d="m 101.573,302.982 c -0.138,0 -0.21,0.767 -0.586,1.908 a 9.81,9.81 0 0 1 -0.863,1.9 c -0.394,0.64 -0.936,1.494 -1.529,1.51 -0.652,0.033 -1.19,-0.64 -1.454,-1.348 a 10.735,10.735 0 0 1 -0.6,-2.005 c -0.231,-1.182 -0.228,-1.955 -0.363,-1.966 -0.112,-0.014 -0.349,0.758 -0.273,2.049 a 8.43,8.43 0 0 0 0.457,2.222 3.617,3.617 0 0 0 0.71,1.263 2.038,2.038 0 0 0 1.576,0.692 2.094,2.094 0 0 0 1.469,-0.856 7.208,7.208 0 0 0 0.739,-1.154 7.911,7.911 0 0 0 0.752,-2.145 c 0.239,-1.278 0.075,-2.074 -0.035,-2.07 z"
                   class="e" />
              </g>
            </g>
            <path
               id="path941"
               transform="translate(-28.472,-301.105)"
               d="m 91.066,321.062 -1.805,0.583 c -0.78,0.266 -1.736,0.582 -2.86,0.9 -1.124,0.318 -2.388,0.741 -3.817,1.1 -2.835,0.789 -6.253,1.567 -10.068,2.317 -3.823,0.714 -8.051,1.372 -12.512,1.9 -8.924,1.027 -17.057,1.458 -22.941,1.773 -2.387,0.128 -4.693,0.251 -6.971,0.371 l -1.621,0.108 c 0.009,0.045 0.021,0.092 0.03,0.138 l 1.6,-0.011 c 1.648,-0.023 4.033,-0.078 6.981,-0.179 5.891,-0.206 14.041,-0.569 22.992,-1.6 4.474,-0.531 8.715,-1.209 12.547,-1.956 3.826,-0.782 7.248,-1.607 10.078,-2.451 1.426,-0.383 2.688,-0.826 3.8,-1.186 1.112,-0.36 2.066,-0.7 2.835,-1 l 1.771,-0.69 a 2.709,2.709 0 0 0 0.6,-0.28 2.812,2.812 0 0 0 -0.639,0.163 z"
               class="e" />
            <g
               id="g945"
               transform="translate(62.091,16.358)">
              <path
                 id="path943"
                 transform="translate(-84.677,-317.789)"
                 d="m 86.126,324.09 c 0.07,0.023 0.274,-0.316 0.38,-0.937 a 5.447,5.447 0 0 0 -0.21,-2.411 6.41,6.41 0 0 0 -1.591,-2.952 c -0.175,0.084 0.482,1.434 1.01,3.123 a 14.683,14.683 0 0 1 0.411,3.177 z"
                 class="e" />
            </g>
          </g>
          <path
             id="path949"
             transform="translate(-25.842,-288.989)"
             d="m 45.608,355.034 6.037,-5.193 16.4,20.74 -8.822,3.946 z"
             class="l" />
          <path
             id="path951"
             transform="translate(-23.944,-288.686)"
             d="m 63.734,371.007 29.78,-18.273 6.144,5.143 -33.871,14.373 z"
             class="l" />
          <path
             id="path953"
             transform="translate(-26.04,-288.69)"
             d="m 46.608,352.923 18.007,15.719 a 0.938,0.938 0 0 0 0.482,0.221 l 5.972,0.861 a 0.927,0.927 0 0 0 0.507,-0.069 l 30,-13.093 a 0.936,0.936 0 0 1 1.31,0.858 l -0.022,49.172 a 0.937,0.937 0 0 1 -0.809,0.927 l -31.845,4.375 a 0.922,0.922 0 0 1 -0.316,-0.011 l -6.962,-1.432 a 0.943,0.943 0 0 1 -0.409,-0.2 L 44.053,394.93 a 0.936,0.936 0 0 1 -0.338,-0.751 L 45.058,353.6 a 0.935,0.935 0 0 1 1.55,-0.677 z"
             class="f" />
          <path
             id="path955"
             transform="translate(-24.251,-287.19)"
             d="m 69.543,368.262 -6.508,-0.939 -0.353,-0.308 -1.882,41.791 0.118,0.1 7.348,1.511 0.322,-0.044 L 70.14,368 Z"
             class="g" />
          <path
             id="path957"
             transform="translate(-26.309,-287.162)"
             d="m 41.67,381.169 a 9.447,9.447 0 0 0 7,6.16 4.166,4.166 0 0 0 2.162,-0.1 2.073,2.073 0 0 0 1.376,-1.568 2.936,2.936 0 0 0 -0.358,-1.572 14.513,14.513 0 0 0 -2.838,-4.118 c 0.978,0.994 6.117,-0.827 6.2,-2.3 0.107,-1.828 -5.088,-3.216 -6.467,-3.531 1.294,-0.44 3.057,-0.614 4.238,-1.258 a 2.056,2.056 0 0 0 1.153,-1.689 c 0,-1.132 -1.174,-1.859 -2.217,-2.3 -2.13,-0.895 -5.011,-2.32 -7.309,-1.209 -2.554,1.235 -3.129,5.528 -3.358,7.973 a 12.494,12.494 0 0 0 0.418,5.512 z"
             class="d" />
          <path
             id="path959"
             transform="translate(-22.774,-288.141)"
             d="m 123.077,372.063 a 21.759,21.759 0 0 0 -0.053,-3.9 c -0.42,-4.127 -2.9,-10.241 -7.505,-10.23 -4.9,0.011 -9.41,3.282 -12.857,6.432 a 48.26,48.26 0 0 1 -27.613,12.3 2.415,2.415 0 0 0 1.045,2.8 7.073,7.073 0 0 0 3.083,0.919 10.743,10.743 0 0 0 -3.874,5.3 6.543,6.543 0 0 0 5.563,1.6 c -1.579,1.632 -3.2,4.259 -1.639,5.908 a 4.4,4.4 0 0 0 3.353,0.92 c 14.106,-0.199 39.096,-4.197 40.497,-22.049 z"
             class="d" />
          <path
             id="path961"
             transform="translate(-27.109,-284.026)"
             d="m 43.112,434.76 a 52.381,52.381 0 0 0 0.426,-13.771 c -0.645,-8.228 -2.289,-16.553 -6.275,-23.756 a 80.422,80.422 0 0 0 -3.732,21.93 46.732,46.732 0 0 0 0.931,11.461 c 0.219,1 1.764,8.036 2.723,8.177 1.562,0.231 3.127,0.4 4.693,0.52 a 30.445,30.445 0 0 0 1.234,-4.561 z"
             class="d" />
        </g>
      </g>
    </g>
  </g>
</svg>
